<mxfile host="app.diagrams.net" modified="2022-03-07T12:59:01.741Z" agent="5.0 (Windows NT 10.0; Win64; x64) AppleWebKit/537.36 (KHTML, like Gecko) Chrome/98.0.4758.102 Safari/537.36" etag="dBzTesHBNTCmm8mwnGob" version="16.6.4" type="github">
  <diagram id="qEQCgVEGYSxdwCo334IR" name="Page-1">
    <mxGraphModel dx="2858" dy="2258" grid="1" gridSize="10" guides="1" tooltips="1" connect="1" arrows="1" fold="1" page="1" pageScale="1" pageWidth="827" pageHeight="1169" math="0" shadow="0">
      <root>
        <mxCell id="0" />
        <mxCell id="1" parent="0" />
        <mxCell id="rInZ0QM_BnlawJ9Pr040-125" value="Avoid balloon reduction" style="rounded=1;whiteSpace=wrap;html=1;fontSize=12;verticalAlign=top;strokeColor=#EA6B66;strokeWidth=4;" vertex="1" parent="1">
          <mxGeometry x="-160" y="240" width="1000" height="130" as="geometry" />
        </mxCell>
        <mxCell id="rInZ0QM_BnlawJ9Pr040-3" value="" style="edgeStyle=orthogonalEdgeStyle;rounded=0;orthogonalLoop=1;jettySize=auto;html=1;" edge="1" parent="1" source="rInZ0QM_BnlawJ9Pr040-1" target="rInZ0QM_BnlawJ9Pr040-2">
          <mxGeometry relative="1" as="geometry" />
        </mxCell>
        <mxCell id="rInZ0QM_BnlawJ9Pr040-1" value="Get scheduled payment requests" style="rounded=0;whiteSpace=wrap;html=1;fillColor=#dae8fc;strokeColor=#6c8ebf;" vertex="1" parent="1">
          <mxGeometry x="-160" y="-1070" width="120" height="60" as="geometry" />
        </mxCell>
        <mxCell id="rInZ0QM_BnlawJ9Pr040-5" style="edgeStyle=orthogonalEdgeStyle;rounded=0;orthogonalLoop=1;jettySize=auto;html=1;" edge="1" parent="1" source="rInZ0QM_BnlawJ9Pr040-2" target="rInZ0QM_BnlawJ9Pr040-4">
          <mxGeometry relative="1" as="geometry" />
        </mxCell>
        <mxCell id="rInZ0QM_BnlawJ9Pr040-6" value="Yes" style="edgeLabel;html=1;align=center;verticalAlign=middle;resizable=0;points=[];" vertex="1" connectable="0" parent="rInZ0QM_BnlawJ9Pr040-5">
          <mxGeometry x="0.2714" y="-2" relative="1" as="geometry">
            <mxPoint as="offset" />
          </mxGeometry>
        </mxCell>
        <mxCell id="rInZ0QM_BnlawJ9Pr040-8" value="No" style="edgeStyle=orthogonalEdgeStyle;rounded=0;orthogonalLoop=1;jettySize=auto;html=1;" edge="1" parent="1" source="rInZ0QM_BnlawJ9Pr040-2" target="rInZ0QM_BnlawJ9Pr040-7">
          <mxGeometry relative="1" as="geometry" />
        </mxCell>
        <mxCell id="rInZ0QM_BnlawJ9Pr040-2" value="Is first payment" style="rhombus;whiteSpace=wrap;html=1;rounded=0;fillColor=#fff2cc;strokeColor=#d6b656;" vertex="1" parent="1">
          <mxGeometry x="-140" y="-980" width="80" height="80" as="geometry" />
        </mxCell>
        <mxCell id="rInZ0QM_BnlawJ9Pr040-4" value="End" style="ellipse;whiteSpace=wrap;html=1;aspect=fixed;fillColor=#d5e8d4;strokeColor=#82b366;" vertex="1" parent="1">
          <mxGeometry x="80" y="-970" width="60" height="60" as="geometry" />
        </mxCell>
        <mxCell id="rInZ0QM_BnlawJ9Pr040-10" value="" style="edgeStyle=orthogonalEdgeStyle;rounded=0;orthogonalLoop=1;jettySize=auto;html=1;" edge="1" parent="1" source="rInZ0QM_BnlawJ9Pr040-7" target="rInZ0QM_BnlawJ9Pr040-9">
          <mxGeometry relative="1" as="geometry" />
        </mxCell>
        <mxCell id="rInZ0QM_BnlawJ9Pr040-7" value="Calculate overall Delta" style="whiteSpace=wrap;html=1;rounded=0;fillColor=#dae8fc;strokeColor=#6c8ebf;" vertex="1" parent="1">
          <mxGeometry x="-160" y="-860" width="120" height="60" as="geometry" />
        </mxCell>
        <mxCell id="rInZ0QM_BnlawJ9Pr040-12" value="Yes" style="edgeStyle=orthogonalEdgeStyle;rounded=0;orthogonalLoop=1;jettySize=auto;html=1;" edge="1" parent="1" source="rInZ0QM_BnlawJ9Pr040-9" target="rInZ0QM_BnlawJ9Pr040-11">
          <mxGeometry relative="1" as="geometry" />
        </mxCell>
        <mxCell id="rInZ0QM_BnlawJ9Pr040-16" value="No" style="edgeStyle=orthogonalEdgeStyle;rounded=0;orthogonalLoop=1;jettySize=auto;html=1;" edge="1" parent="1" source="rInZ0QM_BnlawJ9Pr040-9" target="rInZ0QM_BnlawJ9Pr040-15">
          <mxGeometry relative="1" as="geometry" />
        </mxCell>
        <mxCell id="rInZ0QM_BnlawJ9Pr040-9" value="Delta &amp;lt; 0" style="rhombus;whiteSpace=wrap;html=1;rounded=0;fillColor=#fff2cc;strokeColor=#d6b656;" vertex="1" parent="1">
          <mxGeometry x="-140" y="-760" width="80" height="80" as="geometry" />
        </mxCell>
        <mxCell id="rInZ0QM_BnlawJ9Pr040-35" style="edgeStyle=orthogonalEdgeStyle;rounded=0;orthogonalLoop=1;jettySize=auto;html=1;entryX=0;entryY=0.5;entryDx=0;entryDy=0;exitX=0.5;exitY=1;exitDx=0;exitDy=0;" edge="1" parent="1" source="rInZ0QM_BnlawJ9Pr040-11" target="rInZ0QM_BnlawJ9Pr040-25">
          <mxGeometry relative="1" as="geometry" />
        </mxCell>
        <mxCell id="rInZ0QM_BnlawJ9Pr040-11" value="Target ledger changed to AR" style="whiteSpace=wrap;html=1;rounded=0;fillColor=#dae8fc;strokeColor=#6c8ebf;" vertex="1" parent="1">
          <mxGeometry x="-360" y="-750" width="120" height="60" as="geometry" />
        </mxCell>
        <mxCell id="rInZ0QM_BnlawJ9Pr040-18" value="Yes" style="edgeStyle=orthogonalEdgeStyle;rounded=0;orthogonalLoop=1;jettySize=auto;html=1;" edge="1" parent="1" source="rInZ0QM_BnlawJ9Pr040-15" target="rInZ0QM_BnlawJ9Pr040-17">
          <mxGeometry relative="1" as="geometry" />
        </mxCell>
        <mxCell id="rInZ0QM_BnlawJ9Pr040-26" value="No" style="edgeStyle=orthogonalEdgeStyle;rounded=0;orthogonalLoop=1;jettySize=auto;html=1;" edge="1" parent="1" source="rInZ0QM_BnlawJ9Pr040-15" target="rInZ0QM_BnlawJ9Pr040-25">
          <mxGeometry relative="1" as="geometry" />
        </mxCell>
        <mxCell id="rInZ0QM_BnlawJ9Pr040-15" value="Delta = 0" style="rhombus;whiteSpace=wrap;html=1;rounded=0;fillColor=#fff2cc;strokeColor=#d6b656;" vertex="1" parent="1">
          <mxGeometry x="-140" y="-640" width="80" height="80" as="geometry" />
        </mxCell>
        <mxCell id="rInZ0QM_BnlawJ9Pr040-20" value="" style="edgeStyle=orthogonalEdgeStyle;rounded=0;orthogonalLoop=1;jettySize=auto;html=1;" edge="1" parent="1" source="rInZ0QM_BnlawJ9Pr040-17" target="rInZ0QM_BnlawJ9Pr040-19">
          <mxGeometry relative="1" as="geometry" />
        </mxCell>
        <mxCell id="rInZ0QM_BnlawJ9Pr040-17" value="Zero value split" style="whiteSpace=wrap;html=1;rounded=0;" vertex="1" parent="1">
          <mxGeometry y="-630" width="120" height="60" as="geometry" />
        </mxCell>
        <mxCell id="rInZ0QM_BnlawJ9Pr040-22" value="" style="edgeStyle=orthogonalEdgeStyle;rounded=0;orthogonalLoop=1;jettySize=auto;html=1;" edge="1" parent="1" source="rInZ0QM_BnlawJ9Pr040-19" target="rInZ0QM_BnlawJ9Pr040-21">
          <mxGeometry relative="1" as="geometry" />
        </mxCell>
        <mxCell id="rInZ0QM_BnlawJ9Pr040-19" value="Create positive line AP" style="whiteSpace=wrap;html=1;rounded=0;" vertex="1" parent="1">
          <mxGeometry x="200" y="-630" width="120" height="60" as="geometry" />
        </mxCell>
        <mxCell id="rInZ0QM_BnlawJ9Pr040-24" style="edgeStyle=orthogonalEdgeStyle;rounded=0;orthogonalLoop=1;jettySize=auto;html=1;" edge="1" parent="1" source="rInZ0QM_BnlawJ9Pr040-21" target="rInZ0QM_BnlawJ9Pr040-23">
          <mxGeometry relative="1" as="geometry" />
        </mxCell>
        <mxCell id="rInZ0QM_BnlawJ9Pr040-21" value="Create negative line AP" style="whiteSpace=wrap;html=1;rounded=0;fillColor=#dae8fc;strokeColor=#6c8ebf;" vertex="1" parent="1">
          <mxGeometry x="400" y="-630" width="120" height="60" as="geometry" />
        </mxCell>
        <mxCell id="rInZ0QM_BnlawJ9Pr040-23" value="End" style="ellipse;whiteSpace=wrap;html=1;aspect=fixed;fillColor=#d5e8d4;strokeColor=#82b366;" vertex="1" parent="1">
          <mxGeometry x="630" y="-630" width="60" height="60" as="geometry" />
        </mxCell>
        <mxCell id="rInZ0QM_BnlawJ9Pr040-28" value="" style="edgeStyle=orthogonalEdgeStyle;rounded=0;orthogonalLoop=1;jettySize=auto;html=1;" edge="1" parent="1" source="rInZ0QM_BnlawJ9Pr040-25" target="rInZ0QM_BnlawJ9Pr040-27">
          <mxGeometry relative="1" as="geometry" />
        </mxCell>
        <mxCell id="rInZ0QM_BnlawJ9Pr040-25" value="Calculate AP unsettled values" style="whiteSpace=wrap;html=1;rounded=0;fillColor=#dae8fc;strokeColor=#6c8ebf;" vertex="1" parent="1">
          <mxGeometry x="-160" y="-510" width="120" height="60" as="geometry" />
        </mxCell>
        <mxCell id="rInZ0QM_BnlawJ9Pr040-32" value="" style="edgeStyle=orthogonalEdgeStyle;rounded=0;orthogonalLoop=1;jettySize=auto;html=1;" edge="1" parent="1" source="rInZ0QM_BnlawJ9Pr040-27" target="rInZ0QM_BnlawJ9Pr040-31">
          <mxGeometry relative="1" as="geometry" />
        </mxCell>
        <mxCell id="rInZ0QM_BnlawJ9Pr040-27" value="Calculate AR outstanding debt" style="whiteSpace=wrap;html=1;rounded=0;fillColor=#dae8fc;strokeColor=#6c8ebf;" vertex="1" parent="1">
          <mxGeometry x="-160" y="-400" width="120" height="60" as="geometry" />
        </mxCell>
        <mxCell id="rInZ0QM_BnlawJ9Pr040-34" value="No" style="edgeStyle=orthogonalEdgeStyle;rounded=0;orthogonalLoop=1;jettySize=auto;html=1;entryX=0.5;entryY=0;entryDx=0;entryDy=0;" edge="1" parent="1" source="rInZ0QM_BnlawJ9Pr040-31" target="rInZ0QM_BnlawJ9Pr040-44">
          <mxGeometry relative="1" as="geometry">
            <mxPoint x="-100" y="-130" as="targetPoint" />
          </mxGeometry>
        </mxCell>
        <mxCell id="rInZ0QM_BnlawJ9Pr040-37" value="" style="edgeStyle=orthogonalEdgeStyle;rounded=0;orthogonalLoop=1;jettySize=auto;html=1;" edge="1" parent="1" source="rInZ0QM_BnlawJ9Pr040-31" target="rInZ0QM_BnlawJ9Pr040-36">
          <mxGeometry relative="1" as="geometry" />
        </mxCell>
        <mxCell id="rInZ0QM_BnlawJ9Pr040-31" value="Has &lt;br&gt;outstanding &lt;br&gt;values on either ledger?" style="rhombus;whiteSpace=wrap;html=1;rounded=0;fontSize=8;fillColor=#fff2cc;strokeColor=#d6b656;" vertex="1" parent="1">
          <mxGeometry x="-140" y="-310" width="80" height="80" as="geometry" />
        </mxCell>
        <mxCell id="rInZ0QM_BnlawJ9Pr040-39" value="Yes" style="edgeStyle=orthogonalEdgeStyle;rounded=0;orthogonalLoop=1;jettySize=auto;html=1;" edge="1" parent="1" source="rInZ0QM_BnlawJ9Pr040-36" target="rInZ0QM_BnlawJ9Pr040-38">
          <mxGeometry relative="1" as="geometry" />
        </mxCell>
        <mxCell id="rInZ0QM_BnlawJ9Pr040-43" value="No" style="edgeStyle=orthogonalEdgeStyle;rounded=0;orthogonalLoop=1;jettySize=auto;html=1;" edge="1" parent="1" source="rInZ0QM_BnlawJ9Pr040-36" target="rInZ0QM_BnlawJ9Pr040-42">
          <mxGeometry relative="1" as="geometry" />
        </mxCell>
        <mxCell id="rInZ0QM_BnlawJ9Pr040-36" value="Is outstanding&lt;br&gt;value greater than request value?" style="rhombus;whiteSpace=wrap;html=1;rounded=0;fontSize=8;fillColor=#fff2cc;strokeColor=#d6b656;" vertex="1" parent="1">
          <mxGeometry x="20" y="-310" width="80" height="80" as="geometry" />
        </mxCell>
        <mxCell id="rInZ0QM_BnlawJ9Pr040-41" value="" style="edgeStyle=orthogonalEdgeStyle;rounded=0;orthogonalLoop=1;jettySize=auto;html=1;entryX=1;entryY=0.5;entryDx=0;entryDy=0;exitX=0.5;exitY=1;exitDx=0;exitDy=0;" edge="1" parent="1" source="rInZ0QM_BnlawJ9Pr040-38" target="rInZ0QM_BnlawJ9Pr040-45">
          <mxGeometry relative="1" as="geometry">
            <mxPoint x="380" as="targetPoint" />
            <Array as="points">
              <mxPoint x="220" y="-30" />
            </Array>
          </mxGeometry>
        </mxCell>
        <mxCell id="rInZ0QM_BnlawJ9Pr040-38" value="Swap ledger" style="whiteSpace=wrap;html=1;rounded=0;fillColor=#dae8fc;strokeColor=#6c8ebf;" vertex="1" parent="1">
          <mxGeometry x="160" y="-300" width="120" height="60" as="geometry" />
        </mxCell>
        <mxCell id="rInZ0QM_BnlawJ9Pr040-124" style="edgeStyle=orthogonalEdgeStyle;rounded=0;orthogonalLoop=1;jettySize=auto;html=1;entryX=1;entryY=0.5;entryDx=0;entryDy=0;fontSize=8;exitX=0.5;exitY=1;exitDx=0;exitDy=0;" edge="1" parent="1" source="rInZ0QM_BnlawJ9Pr040-42" target="rInZ0QM_BnlawJ9Pr040-45">
          <mxGeometry relative="1" as="geometry" />
        </mxCell>
        <mxCell id="rInZ0QM_BnlawJ9Pr040-42" value="Split across ledgers to cover outstanding value" style="whiteSpace=wrap;html=1;rounded=0;fillColor=#dae8fc;strokeColor=#6c8ebf;" vertex="1" parent="1">
          <mxGeometry y="-180" width="120" height="60" as="geometry" />
        </mxCell>
        <mxCell id="rInZ0QM_BnlawJ9Pr040-46" value="" style="edgeStyle=orthogonalEdgeStyle;rounded=0;orthogonalLoop=1;jettySize=auto;html=1;" edge="1" parent="1" source="rInZ0QM_BnlawJ9Pr040-44" target="rInZ0QM_BnlawJ9Pr040-45">
          <mxGeometry relative="1" as="geometry" />
        </mxCell>
        <mxCell id="rInZ0QM_BnlawJ9Pr040-44" value="Swap ledger" style="whiteSpace=wrap;html=1;rounded=0;fillColor=#dae8fc;strokeColor=#6c8ebf;" vertex="1" parent="1">
          <mxGeometry x="-160" y="-180" width="120" height="60" as="geometry" />
        </mxCell>
        <mxCell id="rInZ0QM_BnlawJ9Pr040-48" value="Yes" style="edgeStyle=orthogonalEdgeStyle;rounded=0;orthogonalLoop=1;jettySize=auto;html=1;" edge="1" parent="1" source="rInZ0QM_BnlawJ9Pr040-45" target="rInZ0QM_BnlawJ9Pr040-47">
          <mxGeometry relative="1" as="geometry" />
        </mxCell>
        <mxCell id="rInZ0QM_BnlawJ9Pr040-58" value="No" style="edgeStyle=orthogonalEdgeStyle;rounded=0;orthogonalLoop=1;jettySize=auto;html=1;exitX=0.5;exitY=1;exitDx=0;exitDy=0;" edge="1" parent="1" source="rInZ0QM_BnlawJ9Pr040-47" target="rInZ0QM_BnlawJ9Pr040-57">
          <mxGeometry relative="1" as="geometry" />
        </mxCell>
        <mxCell id="rInZ0QM_BnlawJ9Pr040-88" value="No" style="edgeStyle=orthogonalEdgeStyle;rounded=0;orthogonalLoop=1;jettySize=auto;html=1;" edge="1" parent="1" source="rInZ0QM_BnlawJ9Pr040-45" target="rInZ0QM_BnlawJ9Pr040-87">
          <mxGeometry relative="1" as="geometry" />
        </mxCell>
        <mxCell id="rInZ0QM_BnlawJ9Pr040-45" value="Has any AR requests?" style="rhombus;whiteSpace=wrap;html=1;rounded=0;fontSize=11;fillColor=#fff2cc;strokeColor=#d6b656;" vertex="1" parent="1">
          <mxGeometry x="-140" y="-70" width="80" height="80" as="geometry" />
        </mxCell>
        <mxCell id="rInZ0QM_BnlawJ9Pr040-50" value="No" style="edgeStyle=orthogonalEdgeStyle;rounded=0;orthogonalLoop=1;jettySize=auto;html=1;" edge="1" parent="1" source="rInZ0QM_BnlawJ9Pr040-47" target="rInZ0QM_BnlawJ9Pr040-49">
          <mxGeometry relative="1" as="geometry" />
        </mxCell>
        <mxCell id="rInZ0QM_BnlawJ9Pr040-47" value="Has enrichment data?" style="rhombus;whiteSpace=wrap;html=1;rounded=0;fillColor=#fff2cc;strokeColor=#d6b656;" vertex="1" parent="1">
          <mxGeometry x="-300" y="-70" width="80" height="80" as="geometry" />
        </mxCell>
        <mxCell id="rInZ0QM_BnlawJ9Pr040-52" value="" style="edgeStyle=orthogonalEdgeStyle;rounded=0;orthogonalLoop=1;jettySize=auto;html=1;" edge="1" parent="1" target="rInZ0QM_BnlawJ9Pr040-51">
          <mxGeometry relative="1" as="geometry">
            <mxPoint x="-450" y="-30.000000000000227" as="sourcePoint" />
          </mxGeometry>
        </mxCell>
        <mxCell id="rInZ0QM_BnlawJ9Pr040-49" value="Route to Request Editor" style="whiteSpace=wrap;html=1;rounded=0;fillColor=#dae8fc;strokeColor=#6c8ebf;" vertex="1" parent="1">
          <mxGeometry x="-480" y="-60" width="120" height="60" as="geometry" />
        </mxCell>
        <mxCell id="rInZ0QM_BnlawJ9Pr040-54" value="" style="edgeStyle=orthogonalEdgeStyle;rounded=0;orthogonalLoop=1;jettySize=auto;html=1;" edge="1" parent="1" source="rInZ0QM_BnlawJ9Pr040-51" target="rInZ0QM_BnlawJ9Pr040-53">
          <mxGeometry relative="1" as="geometry" />
        </mxCell>
        <mxCell id="rInZ0QM_BnlawJ9Pr040-51" value="Apply hold" style="whiteSpace=wrap;html=1;rounded=0;fillColor=#dae8fc;strokeColor=#6c8ebf;" vertex="1" parent="1">
          <mxGeometry x="-650" y="-60" width="120" height="60" as="geometry" />
        </mxCell>
        <mxCell id="rInZ0QM_BnlawJ9Pr040-112" style="edgeStyle=orthogonalEdgeStyle;rounded=0;orthogonalLoop=1;jettySize=auto;html=1;entryX=0;entryY=0.5;entryDx=0;entryDy=0;fontSize=8;exitX=0.5;exitY=0;exitDx=0;exitDy=0;" edge="1" parent="1" source="rInZ0QM_BnlawJ9Pr040-53" target="rInZ0QM_BnlawJ9Pr040-110">
          <mxGeometry relative="1" as="geometry">
            <Array as="points">
              <mxPoint x="-760" y="-1130" />
            </Array>
          </mxGeometry>
        </mxCell>
        <mxCell id="rInZ0QM_BnlawJ9Pr040-53" value="Reschedule for when enrichment data received" style="whiteSpace=wrap;html=1;rounded=0;fillColor=#dae8fc;strokeColor=#6c8ebf;" vertex="1" parent="1">
          <mxGeometry x="-820" y="-60" width="120" height="60" as="geometry" />
        </mxCell>
        <mxCell id="rInZ0QM_BnlawJ9Pr040-60" value="" style="edgeStyle=orthogonalEdgeStyle;rounded=0;orthogonalLoop=1;jettySize=auto;html=1;" edge="1" parent="1" source="rInZ0QM_BnlawJ9Pr040-57" target="rInZ0QM_BnlawJ9Pr040-59">
          <mxGeometry relative="1" as="geometry" />
        </mxCell>
        <mxCell id="rInZ0QM_BnlawJ9Pr040-57" value="Add original settlement date to AR" style="whiteSpace=wrap;html=1;rounded=0;fillColor=#dae8fc;strokeColor=#6c8ebf;" vertex="1" parent="1">
          <mxGeometry x="-320" y="70" width="120" height="60" as="geometry" />
        </mxCell>
        <mxCell id="rInZ0QM_BnlawJ9Pr040-64" value="Yes" style="edgeStyle=orthogonalEdgeStyle;rounded=0;orthogonalLoop=1;jettySize=auto;html=1;" edge="1" parent="1" source="rInZ0QM_BnlawJ9Pr040-59" target="rInZ0QM_BnlawJ9Pr040-63">
          <mxGeometry relative="1" as="geometry" />
        </mxCell>
        <mxCell id="rInZ0QM_BnlawJ9Pr040-66" value="No" style="edgeStyle=orthogonalEdgeStyle;rounded=0;orthogonalLoop=1;jettySize=auto;html=1;exitX=0.5;exitY=1;exitDx=0;exitDy=0;entryX=0;entryY=0.5;entryDx=0;entryDy=0;" edge="1" parent="1" source="rInZ0QM_BnlawJ9Pr040-59" target="rInZ0QM_BnlawJ9Pr040-87">
          <mxGeometry relative="1" as="geometry" />
        </mxCell>
        <mxCell id="rInZ0QM_BnlawJ9Pr040-59" value="Is correction to previous AR?" style="rhombus;whiteSpace=wrap;html=1;rounded=0;fontSize=9;fillColor=#fff2cc;strokeColor=#d6b656;" vertex="1" parent="1">
          <mxGeometry x="-300" y="170" width="80" height="80" as="geometry" />
        </mxCell>
        <mxCell id="rInZ0QM_BnlawJ9Pr040-67" style="edgeStyle=orthogonalEdgeStyle;rounded=0;orthogonalLoop=1;jettySize=auto;html=1;entryX=0;entryY=0.5;entryDx=0;entryDy=0;exitX=0.5;exitY=1;exitDx=0;exitDy=0;" edge="1" parent="1" source="rInZ0QM_BnlawJ9Pr040-63" target="rInZ0QM_BnlawJ9Pr040-87">
          <mxGeometry relative="1" as="geometry" />
        </mxCell>
        <mxCell id="rInZ0QM_BnlawJ9Pr040-63" value="Add last AR invoice number as correction reference" style="whiteSpace=wrap;html=1;rounded=0;fillColor=#dae8fc;strokeColor=#6c8ebf;" vertex="1" parent="1">
          <mxGeometry x="-480" y="180" width="120" height="60" as="geometry" />
        </mxCell>
        <mxCell id="rInZ0QM_BnlawJ9Pr040-70" value="" style="edgeStyle=orthogonalEdgeStyle;rounded=0;orthogonalLoop=1;jettySize=auto;html=1;" edge="1" parent="1" source="rInZ0QM_BnlawJ9Pr040-65" target="rInZ0QM_BnlawJ9Pr040-69">
          <mxGeometry relative="1" as="geometry" />
        </mxCell>
        <mxCell id="rInZ0QM_BnlawJ9Pr040-65" value="Map account codes" style="whiteSpace=wrap;html=1;rounded=0;" vertex="1" parent="1">
          <mxGeometry x="-160" y="410" width="120" height="60" as="geometry" />
        </mxCell>
        <mxCell id="rInZ0QM_BnlawJ9Pr040-72" value="Yes" style="edgeStyle=orthogonalEdgeStyle;rounded=0;orthogonalLoop=1;jettySize=auto;html=1;" edge="1" parent="1" source="rInZ0QM_BnlawJ9Pr040-69" target="rInZ0QM_BnlawJ9Pr040-71">
          <mxGeometry relative="1" as="geometry" />
        </mxCell>
        <mxCell id="rInZ0QM_BnlawJ9Pr040-84" value="No" style="edgeStyle=orthogonalEdgeStyle;rounded=0;orthogonalLoop=1;jettySize=auto;html=1;" edge="1" parent="1" source="rInZ0QM_BnlawJ9Pr040-69">
          <mxGeometry relative="1" as="geometry">
            <mxPoint x="-100" y="680" as="targetPoint" />
          </mxGeometry>
        </mxCell>
        <mxCell id="rInZ0QM_BnlawJ9Pr040-69" value="Is manual check enabled?" style="rhombus;whiteSpace=wrap;html=1;rounded=0;fontSize=8;fillColor=#fff2cc;strokeColor=#d6b656;" vertex="1" parent="1">
          <mxGeometry x="-140" y="510" width="80" height="80" as="geometry" />
        </mxCell>
        <mxCell id="rInZ0QM_BnlawJ9Pr040-74" value="" style="edgeStyle=orthogonalEdgeStyle;rounded=0;orthogonalLoop=1;jettySize=auto;html=1;" edge="1" parent="1" source="rInZ0QM_BnlawJ9Pr040-71" target="rInZ0QM_BnlawJ9Pr040-73">
          <mxGeometry relative="1" as="geometry" />
        </mxCell>
        <mxCell id="rInZ0QM_BnlawJ9Pr040-71" value="Is request &lt;br&gt;a recovery or a &lt;br&gt;top up following recovery?" style="rhombus;whiteSpace=wrap;html=1;rounded=0;fontSize=8;fillColor=#fff2cc;strokeColor=#d6b656;" vertex="1" parent="1">
          <mxGeometry x="-300" y="510" width="80" height="80" as="geometry" />
        </mxCell>
        <mxCell id="rInZ0QM_BnlawJ9Pr040-76" value="" style="edgeStyle=orthogonalEdgeStyle;rounded=0;orthogonalLoop=1;jettySize=auto;html=1;" edge="1" parent="1" source="rInZ0QM_BnlawJ9Pr040-73" target="rInZ0QM_BnlawJ9Pr040-75">
          <mxGeometry relative="1" as="geometry" />
        </mxCell>
        <mxCell id="rInZ0QM_BnlawJ9Pr040-73" value="Route to Request Editor" style="whiteSpace=wrap;html=1;rounded=0;" vertex="1" parent="1">
          <mxGeometry x="-450" y="520" width="120" height="60" as="geometry" />
        </mxCell>
        <mxCell id="rInZ0QM_BnlawJ9Pr040-78" value="" style="edgeStyle=orthogonalEdgeStyle;rounded=0;orthogonalLoop=1;jettySize=auto;html=1;" edge="1" parent="1" source="rInZ0QM_BnlawJ9Pr040-75" target="rInZ0QM_BnlawJ9Pr040-77">
          <mxGeometry relative="1" as="geometry" />
        </mxCell>
        <mxCell id="rInZ0QM_BnlawJ9Pr040-75" value="Apply hold" style="whiteSpace=wrap;html=1;rounded=0;fillColor=#dae8fc;strokeColor=#6c8ebf;" vertex="1" parent="1">
          <mxGeometry x="-610" y="520" width="120" height="60" as="geometry" />
        </mxCell>
        <mxCell id="rInZ0QM_BnlawJ9Pr040-82" value="" style="edgeStyle=orthogonalEdgeStyle;rounded=0;orthogonalLoop=1;jettySize=auto;html=1;dashed=1;" edge="1" parent="1" source="rInZ0QM_BnlawJ9Pr040-77" target="rInZ0QM_BnlawJ9Pr040-81">
          <mxGeometry relative="1" as="geometry" />
        </mxCell>
        <mxCell id="rInZ0QM_BnlawJ9Pr040-77" value="Wait for confirmation ledger assigned correct" style="whiteSpace=wrap;html=1;rounded=0;fillColor=#dae8fc;strokeColor=#6c8ebf;" vertex="1" parent="1">
          <mxGeometry x="-770" y="520" width="120" height="60" as="geometry" />
        </mxCell>
        <mxCell id="rInZ0QM_BnlawJ9Pr040-85" style="edgeStyle=orthogonalEdgeStyle;rounded=0;orthogonalLoop=1;jettySize=auto;html=1;entryX=0;entryY=0.5;entryDx=0;entryDy=0;" edge="1" parent="1" source="rInZ0QM_BnlawJ9Pr040-81" target="rInZ0QM_BnlawJ9Pr040-86">
          <mxGeometry relative="1" as="geometry">
            <mxPoint x="-160" y="710" as="targetPoint" />
          </mxGeometry>
        </mxCell>
        <mxCell id="rInZ0QM_BnlawJ9Pr040-81" value="Ledger assignment confirmed/adjusted in Request Editor" style="whiteSpace=wrap;html=1;rounded=0;fillColor=#dae8fc;strokeColor=#6c8ebf;" vertex="1" parent="1">
          <mxGeometry x="-770" y="680" width="120" height="60" as="geometry" />
        </mxCell>
        <mxCell id="rInZ0QM_BnlawJ9Pr040-86" value="End" style="ellipse;whiteSpace=wrap;html=1;aspect=fixed;fillColor=#d5e8d4;strokeColor=#82b366;" vertex="1" parent="1">
          <mxGeometry x="-130" y="680" width="60" height="60" as="geometry" />
        </mxCell>
        <mxCell id="rInZ0QM_BnlawJ9Pr040-89" value="No" style="edgeStyle=orthogonalEdgeStyle;rounded=0;orthogonalLoop=1;jettySize=auto;html=1;entryX=0.5;entryY=0;entryDx=0;entryDy=0;" edge="1" parent="1" source="rInZ0QM_BnlawJ9Pr040-87" target="rInZ0QM_BnlawJ9Pr040-65">
          <mxGeometry relative="1" as="geometry" />
        </mxCell>
        <mxCell id="rInZ0QM_BnlawJ9Pr040-92" value="Yes" style="edgeStyle=orthogonalEdgeStyle;rounded=0;orthogonalLoop=1;jettySize=auto;html=1;" edge="1" parent="1" source="rInZ0QM_BnlawJ9Pr040-87" target="rInZ0QM_BnlawJ9Pr040-91">
          <mxGeometry relative="1" as="geometry" />
        </mxCell>
        <mxCell id="rInZ0QM_BnlawJ9Pr040-87" value="Has any AP requests?" style="rhombus;whiteSpace=wrap;html=1;rounded=0;fontSize=10;fillColor=#fff2cc;strokeColor=#d6b656;" vertex="1" parent="1">
          <mxGeometry x="-140" y="280" width="80" height="80" as="geometry" />
        </mxCell>
        <mxCell id="rInZ0QM_BnlawJ9Pr040-93" value="No" style="edgeStyle=orthogonalEdgeStyle;rounded=0;orthogonalLoop=1;jettySize=auto;html=1;entryX=1;entryY=0.5;entryDx=0;entryDy=0;exitX=0.5;exitY=1;exitDx=0;exitDy=0;" edge="1" parent="1" source="rInZ0QM_BnlawJ9Pr040-91" target="rInZ0QM_BnlawJ9Pr040-65">
          <mxGeometry x="-0.619" relative="1" as="geometry">
            <mxPoint as="offset" />
          </mxGeometry>
        </mxCell>
        <mxCell id="rInZ0QM_BnlawJ9Pr040-99" value="Yes" style="edgeStyle=orthogonalEdgeStyle;rounded=0;orthogonalLoop=1;jettySize=auto;html=1;" edge="1" parent="1" source="rInZ0QM_BnlawJ9Pr040-91" target="rInZ0QM_BnlawJ9Pr040-98">
          <mxGeometry relative="1" as="geometry" />
        </mxCell>
        <mxCell id="rInZ0QM_BnlawJ9Pr040-91" value="Has any AP&lt;br style=&quot;font-size: 10px;&quot;&gt;&amp;nbsp;&amp;lt; 0" style="rhombus;whiteSpace=wrap;html=1;rounded=0;fontSize=10;fillColor=#fff2cc;strokeColor=#d6b656;" vertex="1" parent="1">
          <mxGeometry x="-23" y="280" width="80" height="80" as="geometry" />
        </mxCell>
        <mxCell id="rInZ0QM_BnlawJ9Pr040-100" value="No" style="edgeStyle=orthogonalEdgeStyle;rounded=0;orthogonalLoop=1;jettySize=auto;html=1;entryX=1;entryY=0.5;entryDx=0;entryDy=0;exitX=0.5;exitY=1;exitDx=0;exitDy=0;" edge="1" parent="1" source="rInZ0QM_BnlawJ9Pr040-98" target="rInZ0QM_BnlawJ9Pr040-65">
          <mxGeometry x="-0.7838" relative="1" as="geometry">
            <mxPoint as="offset" />
          </mxGeometry>
        </mxCell>
        <mxCell id="rInZ0QM_BnlawJ9Pr040-102" value="" style="edgeStyle=orthogonalEdgeStyle;rounded=0;orthogonalLoop=1;jettySize=auto;html=1;" edge="1" parent="1" source="rInZ0QM_BnlawJ9Pr040-98" target="rInZ0QM_BnlawJ9Pr040-101">
          <mxGeometry relative="1" as="geometry" />
        </mxCell>
        <mxCell id="rInZ0QM_BnlawJ9Pr040-98" value="First payment&lt;br&gt;request has schedule?" style="rhombus;whiteSpace=wrap;html=1;rounded=0;fontSize=8;fillColor=#fff2cc;strokeColor=#d6b656;" vertex="1" parent="1">
          <mxGeometry x="117" y="280" width="80" height="80" as="geometry" />
        </mxCell>
        <mxCell id="rInZ0QM_BnlawJ9Pr040-104" value="" style="edgeStyle=orthogonalEdgeStyle;rounded=0;orthogonalLoop=1;jettySize=auto;html=1;" edge="1" parent="1" source="rInZ0QM_BnlawJ9Pr040-101" target="rInZ0QM_BnlawJ9Pr040-103">
          <mxGeometry relative="1" as="geometry" />
        </mxCell>
        <mxCell id="rInZ0QM_BnlawJ9Pr040-101" value="Calculate payment schedule due dates" style="whiteSpace=wrap;html=1;rounded=0;fillColor=#dae8fc;strokeColor=#6c8ebf;" vertex="1" parent="1">
          <mxGeometry x="227" y="290" width="120" height="60" as="geometry" />
        </mxCell>
        <mxCell id="rInZ0QM_BnlawJ9Pr040-106" value="" style="edgeStyle=orthogonalEdgeStyle;rounded=0;orthogonalLoop=1;jettySize=auto;html=1;" edge="1" parent="1" source="rInZ0QM_BnlawJ9Pr040-103" target="rInZ0QM_BnlawJ9Pr040-105">
          <mxGeometry relative="1" as="geometry" />
        </mxCell>
        <mxCell id="rInZ0QM_BnlawJ9Pr040-103" value="Calculate outstanding schedule dates" style="whiteSpace=wrap;html=1;rounded=0;fillColor=#dae8fc;strokeColor=#6c8ebf;" vertex="1" parent="1">
          <mxGeometry x="387" y="290" width="120" height="60" as="geometry" />
        </mxCell>
        <mxCell id="rInZ0QM_BnlawJ9Pr040-108" value="" style="edgeStyle=orthogonalEdgeStyle;rounded=0;orthogonalLoop=1;jettySize=auto;html=1;" edge="1" parent="1" source="rInZ0QM_BnlawJ9Pr040-105" target="rInZ0QM_BnlawJ9Pr040-107">
          <mxGeometry relative="1" as="geometry" />
        </mxCell>
        <mxCell id="rInZ0QM_BnlawJ9Pr040-105" value="Reduce schedule to only remaining payments" style="whiteSpace=wrap;html=1;rounded=0;fillColor=#dae8fc;strokeColor=#6c8ebf;" vertex="1" parent="1">
          <mxGeometry x="547" y="290" width="120" height="60" as="geometry" />
        </mxCell>
        <mxCell id="rInZ0QM_BnlawJ9Pr040-109" style="edgeStyle=orthogonalEdgeStyle;rounded=0;orthogonalLoop=1;jettySize=auto;html=1;entryX=1;entryY=0.5;entryDx=0;entryDy=0;exitX=0.5;exitY=1;exitDx=0;exitDy=0;" edge="1" parent="1" source="rInZ0QM_BnlawJ9Pr040-107" target="rInZ0QM_BnlawJ9Pr040-65">
          <mxGeometry relative="1" as="geometry" />
        </mxCell>
        <mxCell id="rInZ0QM_BnlawJ9Pr040-107" value="Change Due to date to next remaining date" style="whiteSpace=wrap;html=1;rounded=0;fillColor=#dae8fc;strokeColor=#6c8ebf;" vertex="1" parent="1">
          <mxGeometry x="707" y="290" width="120" height="60" as="geometry" />
        </mxCell>
        <mxCell id="rInZ0QM_BnlawJ9Pr040-111" style="edgeStyle=orthogonalEdgeStyle;rounded=0;orthogonalLoop=1;jettySize=auto;html=1;entryX=0.5;entryY=0;entryDx=0;entryDy=0;fontSize=8;" edge="1" parent="1" source="rInZ0QM_BnlawJ9Pr040-110" target="rInZ0QM_BnlawJ9Pr040-1">
          <mxGeometry relative="1" as="geometry" />
        </mxCell>
        <mxCell id="rInZ0QM_BnlawJ9Pr040-110" value="Start" style="ellipse;whiteSpace=wrap;html=1;aspect=fixed;fillColor=#d5e8d4;strokeColor=#82b366;" vertex="1" parent="1">
          <mxGeometry x="-130" y="-1160" width="60" height="60" as="geometry" />
        </mxCell>
        <mxCell id="rInZ0QM_BnlawJ9Pr040-113" value="Zero value split" style="whiteSpace=wrap;html=1;rounded=0;" vertex="1" parent="1">
          <mxGeometry y="-630" width="120" height="60" as="geometry" />
        </mxCell>
        <mxCell id="rInZ0QM_BnlawJ9Pr040-114" value="Create positive line AP" style="whiteSpace=wrap;html=1;rounded=0;" vertex="1" parent="1">
          <mxGeometry x="200" y="-630" width="120" height="60" as="geometry" />
        </mxCell>
        <mxCell id="rInZ0QM_BnlawJ9Pr040-115" value="Zero value split" style="whiteSpace=wrap;html=1;rounded=0;" vertex="1" parent="1">
          <mxGeometry y="-630" width="120" height="60" as="geometry" />
        </mxCell>
        <mxCell id="rInZ0QM_BnlawJ9Pr040-116" value="Create positive line AP" style="whiteSpace=wrap;html=1;rounded=0;" vertex="1" parent="1">
          <mxGeometry x="200" y="-630" width="120" height="60" as="geometry" />
        </mxCell>
        <mxCell id="rInZ0QM_BnlawJ9Pr040-117" value="Zero value split" style="whiteSpace=wrap;html=1;rounded=0;fillColor=#dae8fc;strokeColor=#6c8ebf;" vertex="1" parent="1">
          <mxGeometry y="-630" width="120" height="60" as="geometry" />
        </mxCell>
        <mxCell id="rInZ0QM_BnlawJ9Pr040-118" value="Create positive line AP" style="whiteSpace=wrap;html=1;rounded=0;fillColor=#dae8fc;strokeColor=#6c8ebf;" vertex="1" parent="1">
          <mxGeometry x="200" y="-630" width="120" height="60" as="geometry" />
        </mxCell>
        <mxCell id="rInZ0QM_BnlawJ9Pr040-119" value="Map account codes" style="whiteSpace=wrap;html=1;rounded=0;" vertex="1" parent="1">
          <mxGeometry x="-160" y="410" width="120" height="60" as="geometry" />
        </mxCell>
        <mxCell id="rInZ0QM_BnlawJ9Pr040-120" value="Route to Request Editor" style="whiteSpace=wrap;html=1;rounded=0;" vertex="1" parent="1">
          <mxGeometry x="-450" y="520" width="120" height="60" as="geometry" />
        </mxCell>
        <mxCell id="rInZ0QM_BnlawJ9Pr040-121" value="Map account codes" style="whiteSpace=wrap;html=1;rounded=0;fillColor=#dae8fc;strokeColor=#6c8ebf;" vertex="1" parent="1">
          <mxGeometry x="-160" y="410" width="120" height="60" as="geometry" />
        </mxCell>
        <mxCell id="rInZ0QM_BnlawJ9Pr040-122" value="Route to Request Editor" style="whiteSpace=wrap;html=1;rounded=0;fillColor=#dae8fc;strokeColor=#6c8ebf;" vertex="1" parent="1">
          <mxGeometry x="-450" y="520" width="120" height="60" as="geometry" />
        </mxCell>
      </root>
    </mxGraphModel>
  </diagram>
</mxfile>
